{"title":"Enrique Iglesias - Away ft. Sean Garrett 480p Anky","uid":6465515,"size":37966834,"categoryP":"video","categoryS":"music_videos","magnet":"?xt=urn:btih:83adbf6cfd8bc9809bbe18eafe1fc1165eccb8ec&amp;dn=Enrique+Iglesias+-+Away+ft.+Sean+Garrett+480p+Anky&amp;tr=udp%3A%2F%2Ftracker.openbittorrent.com%3A80&amp;tr=udp%3A%2F%2Fopen.demonii.com%3A1337&amp;tr=udp%3A%2F%2Ftracker.coppersurfer.tk%3A6969&amp;tr=udp%3A%2F%2Fexodus.desync.com%3A6969","seeders":0,"leechers":0,"uploader":"ankygautam","files":2,"time":1307954193,"description":"General\nComplete name                    : Enrique Iglesias - Away ft. Sean Garrett 480p.flv\nFormat                           : Flash Video\nFile size                        : 36.2 MiB\nDuration                         : 4mn 32s\nOverall bit rate                 : 1 113 Kbps\n \nVideo\nFormat                           : AVC\nFormat/Info                      : Advanced Video Codec\nFormat profile                   : &lt;a class=&quot;__cf_email__&quot; href=&quot;/cdn-cgi/l/email-protection&quot; data-cfemail=&quot;6a270b03042a2659445a&quot;&gt;[email&amp;#160;protected]&lt;/a&gt;&lt;script cf-hash='f9e31' type=&quot;text/javascript&quot;&gt;\n/* &lt;![CDATA[ */!function(){try{var t=&quot;currentScript&quot;in document?document.currentScript:function(){for(var t=document.getElementsByTagName(&quot;script&quot;),e=t.length;e--;)if(t[e].getAttribute(&quot;cf-hash&quot;))return t[e]}();if(t&amp;&amp;t.previousSibling){var e,r,n,i,c=t.previousSibling,a=c.getAttribute(&quot;data-cfemail&quot;);if(a){for(e=&quot;&quot;,r=parseInt(a.substr(0,2),16),n=2;a.length-n;n+=2)i=parseInt(a.substr(n,2),16)^r,e+=String.fromCharCode(i);e=document.createTextNode(e),c.parentNode.replaceChild(e,c)}}}catch(u){}}();/* ]]&gt; */&lt;/script&gt;\nFormat settings, CABAC           : Yes\nDuration                         : 4mn 32s\nBit rate                         : 987 Kbps\nWidth                            : 854 pixels\nHeight                           : 480 pixels\nDisplay aspect ratio             : 16:9\nFrame rate                       : 23.976 fps\nResolution                       : 24 bits\nColorimetry                      : 4:2:0\nScan type                        : Progressive\nBits/(Pixel*Frame)               : 0.100\nStream size                      : 32.1 MiB (89%)\n\nAudio\nFormat                           : AAC\nFormat/Info                      : Advanced Audio Codec\nFormat version                   : Version 4\nFormat profile                   : LC\nFormat settings, SBR             : No\nDuration                         : 4mn 32s\nBit rate                         : 120 Kbps\nChannel(s)                       : 2 channels\nChannel positions                : L R\nSampling rate                    : 44.1 KHz\nResolution                       : 16 bits\nStream size                      : 3.89 MiB (11%)\n\n\n &lt;a href=&quot;\nhttp://img.sceper.eu/images/vlcsnamom.png&quot; rel=&quot;nofollow&quot; target=&quot;_NEW&quot;&gt;\nhttp://img.sceper.eu/images/vlcsnamom.png&lt;/a&gt;\n &lt;a href=&quot;\nhttp://img.sceper.eu/images/vlcsnalil.png&quot; rel=&quot;nofollow&quot; target=&quot;_NEW&quot;&gt;\nhttp://img.sceper.eu/images/vlcsnalil.png&lt;/a&gt;\n &lt;a href=&quot;\nhttp://img.sceper.eu/images/vlcsnafzf.png&quot; rel=&quot;nofollow&quot; target=&quot;_NEW&quot;&gt;\nhttp://img.sceper.eu/images/vlcsnafzf.png&lt;/a&gt;","torrent":{"xt":"urn:btih:83adbf6cfd8bc9809bbe18eafe1fc1165eccb8ec","amp;dn":"Enrique+Iglesias+-+Away+ft.+Sean+Garrett+480p+Anky","amp;tr":["udp%3A%2F%2Ftracker.openbittorrent.com%3A80","udp%3A%2F%2Fopen.demonii.com%3A1337","udp%3A%2F%2Ftracker.coppersurfer.tk%3A6969","udp%3A%2F%2Fexodus.desync.com%3A6969"],"infoHash":"83adbf6cfd8bc9809bbe18eafe1fc1165eccb8ec","infoHashBuffer":{"type":"Buffer","data":[131,173,191,108,253,139,201,128,155,190,24,234,254,31,193,22,94,204,184,236]},"announce":[],"urlList":[]}}